<svg viewBox="0 0 100 100" xmlns="http://www.w3.org/2000/svg" aria-label="mycnc.app logo">
    <g transform="translate(48,48)" fill="none" stroke="#38bdf8" stroke-width="4">
        <circle r="48" cx="0" cy="0" />
        <path d="M 0,-48 A 48,48 0 0 1 30,16 L 10,6 A 12,12 0 0 0 0,-12 Z" />
        <path d="M 0,-48 A 48,48 0 0 1 30,16 L 10,6 A 12,12 0 0 0 0,-12 Z" transform="rotate(120)" />
        <path d="M 0,-48 A 48,48 0 0 1 30,16 L 10,6 A 12,12 0 0 0 0,-12 Z" transform="rotate(-120)" />
        <circle r="12" cx="0" cy="0" />
    </g>
</svg>
